<svg id="Layer_1" data-name="Layer 1" xmlns="http://www.w3.org/2000/svg" viewBox="0 0 130 130"><defs><style>.cls-1{fill:#86d6c8;}.cls-2,.cls-3{fill:none;stroke:#000;stroke-miterlimit:10;}.cls-2{stroke-width:2.6px;}.cls-3{stroke-width:2px;}</style></defs><title>gout3</title><path class="cls-1" d="M125.82,83c-2.13-2.13-5.67-2.85-9.17-3.31-2.42-.32-5.74-4.55-9.38-5.27s-5,.58-8,0c-3.17-.67-5.66-3.2-8.54-4.73A90.81,90.81,0,0,0,73.37,62.8c-5.91-1.72-10.26-2.1-14.25-7.21-6.65-8.53-5.68-22.34-5.84-32.94H19.55C21,32.75,19,42.39,15.91,52.34,14.2,57.9,11.66,63,10.41,68.76c-1.67,7.67-3.57,16.67,3.95,21.57a23.21,23.21,0,0,0,14.76,3.46c5-.54,8.68-4.28,14.06-4.62,5.81-.38,11.39.86,17,2.53C66.49,93.61,73,95,79.71,94.63c5.87-.33,10.9-3.71,16.79-4.11,5-.32,10,.83,14.91,1.84,3.44.72,7.51,1.12,10.79-.45C125.33,90.41,129,86.17,125.82,83Zm-19.61,4.17c-2.92.18-7.94-1.3-9.53-3.73-5-7.51,9.73-7.25,13.53-5.43C116.19,80.85,111.5,86.84,106.21,87.17Z"/><rect class="cls-1" x="97.3" y="56.67" width="3.39" height="9.85" transform="translate(-16.27 44.04) rotate(-23.23)"/><rect class="cls-1" x="111.38" y="63.86" width="9.94" height="3.39" transform="translate(-10.41 107.6) rotate(-47.75)"/><rect class="cls-1" x="102.83" y="59.9" width="8.28" height="3.4" transform="translate(31.32 159.14) rotate(-82.14)"/><path class="cls-2" d="M122.65,79.47c-2.13-2.13-5.67-2.85-9.17-3.32-2.42-.32-5.74-4.54-9.39-5.26s-5,.58-8,0c-3.17-.68-5.66-3.2-8.54-4.73A90.81,90.81,0,0,0,70.2,59.27c-5.91-1.73-10.26-2.1-14.25-7.21-6.65-8.53-5.68-22.34-5.84-32.94H16.38c1.46,10.09-.58,19.74-3.64,29.68C11,54.37,8.49,59.48,7.23,65.23c-1.67,7.66-3.56,16.67,4,21.56A23.14,23.14,0,0,0,26,90.26C31,89.71,34.63,86,40,85.63c5.81-.37,11.4.87,17,2.54,6.35,1.91,12.88,3.32,19.56,2.93,5.88-.33,10.91-3.71,16.79-4.11,5-.32,10.06.83,14.91,1.84,3.45.72,7.52,1.12,10.8-.45C122.16,86.88,125.82,82.63,122.65,79.47ZM103,83.64c-2.91.18-7.93-1.3-9.53-3.73-4.94-7.51,9.74-7.25,13.54-5.44C113,77.32,108.33,83.31,103,83.64Z"/><rect class="cls-3" x="95.13" y="56.14" width="3.39" height="9.85" transform="translate(-16.24 43.14) rotate(-23.23)"/><rect class="cls-3" x="109.2" y="63.33" width="9.94" height="3.39" transform="translate(-10.73 105.81) rotate(-47.75)"/><rect class="cls-3" x="100.66" y="59.37" width="8.28" height="3.4" transform="translate(29.97 156.53) rotate(-82.14)"/></svg>