<svg id="Layer_1" data-name="Layer 1" xmlns="http://www.w3.org/2000/svg" viewBox="0 0 130 130"><defs><style>.cls-1{fill:#86d6c8;}.cls-2,.cls-3{fill:none;stroke:#000;stroke-miterlimit:10;}.cls-2{stroke-width:2.6px;}.cls-3{stroke-width:2px;}</style></defs><title>gout3</title><path class="cls-1" d="M125.82,92c-2.13-2.13-5.67-2.85-9.17-3.31-2.42-.32-5.74-4.55-9.38-5.27s-5,.58-8,0c-3.17-.67-5.66-3.2-8.54-4.73A90.81,90.81,0,0,0,73.37,71.8c-5.91-1.72-10.26-2.1-14.25-7.21-6.65-8.53-5.68-22.34-5.84-32.94H19.55C21,41.75,19,51.39,15.91,61.34,14.2,66.9,11.66,72,10.41,77.76c-1.67,7.67-3.57,16.67,3.95,21.57a23.21,23.21,0,0,0,14.76,3.46c5-.54,8.68-4.28,14.06-4.62,5.81-.38,11.39.86,17,2.53,6.35,1.91,12.88,3.32,19.57,2.93,5.87-.33,10.9-3.71,16.79-4.11,5-.32,10,.83,14.91,1.84,3.44.72,7.51,1.12,10.79-.45C125.33,99.41,129,95.17,125.82,92Z"/><rect class="cls-1" x="97.3" y="65.67" width="3.39" height="9.85" transform="translate(-19.82 44.77) rotate(-23.23)"/><rect class="cls-1" x="111.38" y="72.86" width="9.94" height="3.39" transform="translate(-17.07 110.54) rotate(-47.75)"/><rect class="cls-1" x="102.83" y="68.9" width="8.28" height="3.4" transform="translate(22.41 166.91) rotate(-82.14)"/><path class="cls-2" d="M122.65,88.47c-2.13-2.13-5.67-2.85-9.17-3.32-2.42-.32-5.74-4.54-9.39-5.26s-5,.58-8,0c-3.17-.68-5.66-3.2-8.54-4.73A90.81,90.81,0,0,0,70.2,68.27c-5.91-1.73-10.26-2.1-14.25-7.21-6.65-8.53-5.68-22.34-5.84-32.94H16.38c1.46,10.09-.58,19.74-3.64,29.68C11,63.37,8.49,68.48,7.23,74.23c-1.67,7.66-3.56,16.67,4,21.56A23.14,23.14,0,0,0,26,99.26C31,98.71,34.63,95,40,94.63c5.81-.37,11.4.87,17,2.54,6.35,1.91,12.88,3.32,19.56,2.93,5.88-.33,10.91-3.71,16.79-4.11,5-.32,10.06.83,14.91,1.84,3.45.72,7.52,1.12,10.8-.45C122.16,95.88,125.82,91.63,122.65,88.47Z"/><rect class="cls-3" x="95.13" y="65.14" width="3.39" height="9.85" transform="translate(-19.79 43.87) rotate(-23.23)"/><rect class="cls-3" x="109.2" y="72.33" width="9.94" height="3.39" transform="translate(-17.39 108.76) rotate(-47.75)"/><rect class="cls-3" x="100.66" y="68.37" width="8.28" height="3.4" transform="translate(21.06 164.3) rotate(-82.14)"/></svg>