<svg id="Layer_1" data-name="Layer 1" xmlns="http://www.w3.org/2000/svg" viewBox="0 0 130 130"><defs><style>.cls-1{fill:#a4c02d;}.cls-2{fill:#bf80cc;}.cls-3{fill:none;stroke:#000;stroke-miterlimit:10;stroke-width:2.6px;}</style></defs><title>Kh_3in1</title><path class="cls-1" d="M88,80.33A23.06,23.06,0,0,0,78,62.72a20,20,0,0,1-12.69,4.63,19.72,19.72,0,0,1-12.69-4.63,22.67,22.67,0,0,0-10,17.61L41.3,99.14a2.47,2.47,0,0,0,2.54,2.69H86.67a2.47,2.47,0,0,0,2.54-2.69Z"/><circle class="cls-1" cx="65.18" cy="46.45" r="15.22"/><path class="cls-2" d="M124.88,95.26a2.16,2.16,0,0,1-2.24,2.39H93.84L92.79,80a27.49,27.49,0,0,0-4.33-13.28,23.31,23.31,0,0,1,4-3.58,17.88,17.88,0,0,0,11.2,4.18,16.49,16.49,0,0,0,11.19-4.18,20,20,0,0,1,9,15.52Z"/><circle class="cls-2" cx="103.84" cy="48.84" r="13.28"/><path class="cls-2" d="M41.9,66.75A27.49,27.49,0,0,0,37.57,80l-1,17.62H7.72a2.24,2.24,0,0,1-2.24-2.39l.9-16.57a20.5,20.5,0,0,1,8.8-15.52,17.88,17.88,0,0,0,11.2,4.18,16.49,16.49,0,0,0,11.19-4.18A17.42,17.42,0,0,1,41.9,66.75Z"/><circle class="cls-2" cx="26.52" cy="48.84" r="13.28"/><path class="cls-3" d="M85.63,78.43a23.08,23.08,0,0,0-10-17.61A20.05,20.05,0,0,1,63,65.44a19.75,19.75,0,0,1-12.69-4.62,22.66,22.66,0,0,0-10,17.61l-1.34,18.8a2.47,2.47,0,0,0,2.53,2.69H84.29a2.48,2.48,0,0,0,2.54-2.69Z"/><circle class="cls-3" cx="62.8" cy="44.55" r="15.22"/><path class="cls-3" d="M122.5,93.35a2.16,2.16,0,0,1-2.24,2.39H91.45l-1-17.61a27.52,27.52,0,0,0-4.33-13.29,23.36,23.36,0,0,1,4-3.58,17.83,17.83,0,0,0,11.19,4.18,16.49,16.49,0,0,0,11.2-4.18,20,20,0,0,1,9,15.52Z"/><circle class="cls-3" cx="101.45" cy="46.94" r="13.28"/><path class="cls-3" d="M39.51,64.84a27.51,27.51,0,0,0-4.32,13.29l-1,17.61H5.34A2.24,2.24,0,0,1,3.1,93.35L4,76.78A20.54,20.54,0,0,1,12.8,61.26,17.83,17.83,0,0,0,24,65.44a16.49,16.49,0,0,0,11.2-4.18A17.4,17.4,0,0,1,39.51,64.84Z"/><circle class="cls-3" cx="24.14" cy="46.94" r="13.28"/></svg>