<svg id="Layer_1" data-name="Layer 1" xmlns="http://www.w3.org/2000/svg" viewBox="0 0 130 130"><defs><style>.cls-1{fill:#fea636;}.cls-2{fill:none;stroke:#000;stroke-miterlimit:10;stroke-width:2.6px;}</style></defs><title>Kh_kidney</title><path class="cls-1" d="M106.28,75.72c0-9.45-4.86-17-16.82-21-8.84-3-12.15-8.07-14.46-15.63A21.79,21.79,0,0,0,54.45,23.86C40,23.86,26.77,39.62,26.77,60.45c0,17.58,12.64,42.92,42.92,42.92C92.45,103.37,106.28,88.84,106.28,75.72Z"/><path class="cls-2" d="M102.93,73.56c0-9.45-4.86-17-16.82-21C77.27,49.65,74,44.54,71.65,37A21.79,21.79,0,0,0,51.1,21.71c-14.43,0-27.67,15.75-27.67,36.58,0,17.59,12.63,42.92,42.91,42.92C89.1,101.21,102.93,86.68,102.93,73.56Z"/></svg>