<svg id="Layer_1" data-name="Layer 1" xmlns="http://www.w3.org/2000/svg" viewBox="0 0 130 130"><defs><style>.cls-1{fill:#fea636;}.cls-2{fill:none;stroke:#000;stroke-miterlimit:10;stroke-width:2.6px;}</style></defs><title>Kh_kidney</title><path class="cls-1" d="M123.55,83.9c0-13.17-6.76-23.65-23.42-29.2C87.82,50.58,83.21,43.46,80,32.94A30.33,30.33,0,0,0,51.37,11.67c-20.11,0-38.56,21.94-38.56,51,0,24.49,17.6,59.78,59.78,59.78C104.3,122.41,123.55,102.17,123.55,83.9Z"/><path class="cls-2" d="M118.89,80.9c0-13.17-6.76-23.65-23.42-29.2C83.15,47.58,78.54,40.46,75.32,29.94A30.34,30.34,0,0,0,46.7,8.67c-20.1,0-38.55,21.94-38.55,51,0,24.49,17.6,59.78,59.78,59.78C99.63,119.41,118.89,99.17,118.89,80.9Z"/></svg>