<svg id="Layer_1" data-name="Layer 1" xmlns="http://www.w3.org/2000/svg" viewBox="0 0 130 130"><defs><style>.cls-1{fill:#86d6c8;}.cls-2{fill:#fea636;}.cls-3,.cls-4{fill:none;stroke:#000;stroke-miterlimit:10;}.cls-3{stroke-width:2.6px;}.cls-4{stroke-width:3px;}</style></defs><title>Kh_transplant</title><path class="cls-1" d="M120.55,67.2c-.35-1.46-.89-2.88-1.36-4.31-2.71-8.17-5.33-16.36-8.16-24.49A11.45,11.45,0,0,0,102.71,31c-12.79-3.52-25.44-9-38.86-9.26-6.25-.09-12.16,1.66-18.27,2.58-6.44,1-12.9,1.9-19.28,3.25A3.7,3.7,0,0,0,22.58,25L12.31,25a1,1,0,0,0-1.14.92L11.08,64.3l11.41,0c2.09,0,3.77-1.35,3.81-3V56.89c6.22-.26,20.47,1.38,22.38,3.59a19.23,19.23,0,0,0,8.78,6c9.86,3.17,19.69,6.41,29.54,9.6,3.91,1.27,7.56-.1,9-3.32s0-6.67-3.6-8.5c-6.6-3.32-13.22-6.62-19.8-10C70.07,53,69.16,50.94,70,48.67c.74-2,2.84-3,5.43-2.69C81.28,46.67,87.12,47.43,93,48c4.19.43,6.82,2.3,8,6.23,1.73,5.54,3.76,11,5.68,16.48a7.29,7.29,0,0,0,8.8,4.74A6.76,6.76,0,0,0,120.55,67.2Z"/><path class="cls-2" d="M122.53,102.45c0-3.56-1.77-6.39-6.13-7.89-3.22-1.11-4.43-3-5.27-5.87a8,8,0,0,0-7.49-5.75c-5.26,0-10.09,5.93-10.09,13.77,0,6.61,4.61,16.14,15.65,16.14C117.49,112.85,122.53,107.39,122.53,102.45Z"/><path class="cls-3" d="M120,101.37c0-3.56-1.77-6.39-6.13-7.89-3.22-1.11-4.43-3-5.28-5.88a8,8,0,0,0-7.48-5.75C95.84,81.85,91,87.78,91,95.62c0,6.62,4.6,16.15,15.64,16.15C115,111.77,120,106.3,120,101.37Z"/><path class="cls-3" d="M116.53,64.41c-.35-1.46-.89-2.88-1.36-4.31-2.7-8.16-5.32-16.36-8.16-24.48a11.44,11.44,0,0,0-8.32-7.43q-10.95-3-21.89-6.09c-4.8-1.35-9.59-3.23-14.6-3.55-4.34-.28-8.59,1-12.84,1.7-9,1.55-18.12,2.61-27.07,4.51a3.72,3.72,0,0,0-3.73-2.51l-10.27,0a1,1,0,0,0-1.14.93L7.06,61.51l11.42,0c2.08,0,3.77-1.35,3.81-3V54.1c6.22-.26,20.46,1.38,22.37,3.6a19.34,19.34,0,0,0,8.78,6C63.31,66.86,73.14,70.1,83,73.3c3.91,1.27,7.56-.1,9-3.33s0-6.66-3.6-8.5c-6.6-3.32-13.21-6.62-19.8-10-2.56-1.3-3.47-3.36-2.61-5.63.73-2,2.83-3,5.42-2.69,5.85.69,11.68,1.45,17.54,2.06,4.18.43,6.81,2.3,8,6.23,1.74,5.54,3.77,11,5.68,16.48a7.28,7.28,0,0,0,8.8,4.74A6.76,6.76,0,0,0,116.53,64.41Z"/><line class="cls-4" x1="22.26" y1="24.7" x2="22.26" y2="54.93"/></svg>