<svg id="Layer_1" data-name="Layer 1" xmlns="http://www.w3.org/2000/svg" viewBox="0 0 75 75"><defs><style>.cls-1{fill:#fff;stroke:#000;stroke-miterlimit:10;}.cls-1,.cls-3{stroke-width:2px;}.cls-2{fill:#fea636;}.cls-3{fill:none;stroke:#231f20;stroke-linecap:round;stroke-linejoin:round;}</style></defs><title>khicon_protecting</title><circle class="cls-1" cx="38.14" cy="37.7" r="34.14"/><path class="cls-2" d="M42.7,19.31c-.33-.14-.74-.27-1.07-.41-.34.14-.74.27-1.07.41-4,1.4-8.38,3-13.28,3a41.39,41.39,0,0,1-4.16-.21V45.32c0,5.1,5.1,9.86,9.32,12.94a70,70,0,0,0,9.12,5.43C44.44,62.29,60,54.44,60,45.32V22.12a40.4,40.4,0,0,1-4.16.2c-4.76-.06-9.25-1.6-13.14-3Z"/><path class="cls-3" d="M39.7,17.31c-.33-.14-.74-.27-1.07-.41-.34.14-.74.27-1.07.41-4,1.4-8.38,3-13.28,3a41.39,41.39,0,0,1-4.16-.21V43.32c0,5.1,5.1,9.86,9.32,12.94a70,70,0,0,0,9.12,5.43C41.44,60.29,57,52.44,57,43.32V20.12a40.4,40.4,0,0,1-4.16.2c-4.76-.06-9.25-1.6-13.14-3Z"/><path class="cls-3" d="M50,42.09c0-2.75-1.42-5-4.91-6.11a6,6,0,0,1-4.22-4.56,6.35,6.35,0,0,0-6-4.46c-4.21,0-8.08,4.6-8.08,10.68,0,5.13,3.69,12.52,12.52,12.52C46,50.16,50,45.92,50,42.09Z"/></svg>