<svg id="Layer_1" data-name="Layer 1" xmlns="http://www.w3.org/2000/svg" viewBox="0 0 75 75"><defs><style>.cls-1{fill:#fff;stroke:#000;}.cls-1,.cls-4{stroke-miterlimit:10;}.cls-1,.cls-3,.cls-4{stroke-width:2px;}.cls-2{fill:#fea636;}.cls-3,.cls-4{fill:none;stroke:#231f20;stroke-linecap:round;}.cls-3{stroke-linejoin:round;}</style></defs><title>khicon_lifestyle</title><circle class="cls-1" cx="38.14" cy="37.7" r="34.14"/><rect class="cls-2" x="15.69" y="33.5" width="51.1" height="5.39" rx="2.35"/><rect class="cls-2" x="18.27" y="25.23" width="6.43" height="21.12" rx="2.8"/><rect class="cls-2" x="24.44" y="21.21" width="6.43" height="29.15" rx="2.8"/><rect class="cls-2" x="58.11" y="25.23" width="6.43" height="21.12" rx="2.8" transform="translate(122.64 71.58) rotate(180)"/><rect class="cls-2" x="51.93" y="21.21" width="6.43" height="29.15" rx="2.8" transform="translate(110.3 71.58) rotate(-180)"/><path class="cls-3" d="M62.72,31.85V26.38a2.81,2.81,0,0,0-2.8-2.81H59.1a2.81,2.81,0,0,0-2.55,1.65V22.36a2.81,2.81,0,0,0-2.8-2.8h-.83a2.81,2.81,0,0,0-2.8,2.8v9.48H29.06V22.36a2.81,2.81,0,0,0-2.81-2.8h-.82a2.81,2.81,0,0,0-2.8,2.8s-.05,2.75-.08,2.69a2.81,2.81,0,0,0-2.47-1.48h-.82a2.81,2.81,0,0,0-2.8,2.81v5.46h-.24a2.36,2.36,0,0,0-2.35,2.35v.69a2.36,2.36,0,0,0,2.35,2.35h.24v4.66a2.81,2.81,0,0,0,2.8,2.8h.82A2.81,2.81,0,0,0,22.63,43V45.9a2.81,2.81,0,0,0,2.8,2.8h.82a2.81,2.81,0,0,0,2.81-2.8V37.23H50.12V45.9a2.81,2.81,0,0,0,2.8,2.8h.83a2.81,2.81,0,0,0,2.8-2.8V43a2.81,2.81,0,0,0,2.55,1.65h.82a2.81,2.81,0,0,0,2.8-2.8V37.22A2.35,2.35,0,0,0,65,34.88v-.69A2.35,2.35,0,0,0,62.72,31.85Z"/><line class="cls-3" x1="22.61" y1="42.91" x2="22.61" y2="24.91"/><line class="cls-4" x1="16.41" y1="40.31" x2="16.41" y2="29.54"/><line class="cls-3" x1="62.67" y1="39.82" x2="62.67" y2="29.05"/><line class="cls-3" x1="56.54" y1="43.48" x2="56.54" y2="25.48"/></svg>