<svg id="Layer_1" data-name="Layer 1" xmlns="http://www.w3.org/2000/svg" viewBox="0 0 75 75"><defs><style>.cls-1{fill:#fff;stroke:#000;stroke-miterlimit:10;}.cls-1,.cls-3{stroke-width:2px;}.cls-2{fill:#fea636;}.cls-3{fill:none;stroke:#231f20;stroke-linecap:round;stroke-linejoin:round;}</style></defs><title>khicon_kidneyfailure</title><circle class="cls-1" cx="37.5" cy="37.5" r="34.14"/><path class="cls-2" d="M58.24,38.46c0-4.1-2.1-7.36-7.29-9.09-3.83-1.29-5.27-3.5-6.27-6.78A9.44,9.44,0,0,0,35.77,16c-6.26,0-12,6.83-12,15.86,0,7.63,5.48,18.62,18.61,18.62C52.25,50.45,58.24,44.14,58.24,38.46Z"/><path class="cls-3" d="M54.72,37c0-4.1-2.1-7.36-7.29-9.09-3.83-1.28-5.27-3.5-6.27-6.77a9.45,9.45,0,0,0-8.91-6.63c-6.26,0-12,6.84-12,15.87C20.25,38,25.73,49,38.86,49,48.73,49,54.72,42.66,54.72,37Z"/><path d="M39,43.09a.86.86,0,0,0-.86.87h0V56.83l-3.7-3.7a.85.85,0,0,0-.71-.26.86.86,0,0,0-.76,1,.85.85,0,0,0,.25.52l5.18,5.18a.88.88,0,0,0,1.22,0h0l5.17-5.18a.85.85,0,0,0,.07-1.21.86.86,0,0,0-1.21-.08.6.6,0,0,0-.08.08l-3.7,3.7V44a.86.86,0,0,0-.85-.88Z"/></svg>