<svg id="Layer_1" data-name="Layer 1" xmlns="http://www.w3.org/2000/svg" viewBox="0 0 75 75"><defs><style>.cls-1{fill:#fff;stroke:#000;}.cls-1,.cls-3{stroke-miterlimit:10;stroke-width:2px;}.cls-2{fill:#fea636;}.cls-3{fill:none;stroke:#231f20;stroke-linecap:round;}</style></defs><title>khicon_heart</title><circle class="cls-1" cx="37.62" cy="37.7" r="34.14"/><path class="cls-2" d="M28,22.31A10.69,10.69,0,0,0,17.48,32.72c0,10.14,11.53,19.55,19.66,25.54,8.14-6,19.66-15.4,19.66-25.54A10.69,10.69,0,0,0,46.25,22.31c-3.65,0-6.77,2.91-9.11,5.68-2.34-2.77-5.46-5.68-9.11-5.68Z"/><path class="cls-3" d="M24.79,21.31A10.69,10.69,0,0,0,14.24,31.72c0,10.14,11.52,19.55,19.66,25.54,8.14-6,19.66-15.4,19.66-25.54A10.69,10.69,0,0,0,43,21.31c-3.65,0-6.77,2.91-9.11,5.68-2.34-2.77-5.46-5.68-9.11-5.68Z"/></svg>