<svg id="Layer_1" data-name="Layer 1" xmlns="http://www.w3.org/2000/svg" viewBox="0 0 75 75"><defs><style>.cls-1{fill:#fff;stroke:#000;stroke-miterlimit:10;}.cls-1,.cls-3{stroke-width:2px;}.cls-2{fill:#fea636;}.cls-3{fill:none;stroke:#231f20;stroke-linecap:round;stroke-linejoin:round;}</style></defs><title>khicon_nutrition</title><circle class="cls-1" cx="38.14" cy="37.7" r="34.14"/><path class="cls-2" d="M40.28,24.14A15.7,15.7,0,0,0,33.17,23a12,12,0,0,0-10.8,12.18c.14,11.48,5.19,24.33,11.76,24.33a11.63,11.63,0,0,0,4.48-.89,4.19,4.19,0,0,1,3.15,0,11.63,11.63,0,0,0,4.48.89c6.57,0,11.63-12.85,11.76-24.33V35A12,12,0,0,0,47.2,23,15.51,15.51,0,0,0,40,24.17"/><path class="cls-3" d="M44.82,22a15.53,15.53,0,0,0-7.17,1.18c0-3,3.53-8.78,3.07-8.61a19.15,19.15,0,0,0-2.83,8.58A15.66,15.66,0,0,0,30.78,22,12,12,0,0,0,20,34.17c.14,11.48,5.2,24.33,11.76,24.33a11.68,11.68,0,0,0,4.49-.89,4.16,4.16,0,0,1,3.14,0,11.68,11.68,0,0,0,4.49.89c6.56,0,11.62-12.85,11.75-24.33V34A11.94,11.94,0,0,0,44.82,22ZM44,26.5s6,0,8,7"/></svg>