<svg id="Layer_1" data-name="Layer 1" xmlns="http://www.w3.org/2000/svg" viewBox="0 0 75 75"><defs><style>.cls-1{fill:#fff;stroke:#000;stroke-miterlimit:10;}.cls-1,.cls-3{stroke-width:2px;}.cls-2{fill:#fea636;}.cls-3,.cls-4{fill:none;stroke:#231f20;stroke-linecap:round;stroke-linejoin:round;}</style></defs><title>khicon_ckd</title><circle class="cls-1" cx="37.5" cy="37.5" r="34.14"/><path class="cls-2" d="M28.82,32.81c2.69-4.4.51-7.17-2-8.22-3.67-1.55-6.95,1.93-8.52,4.79a15.23,15.23,0,0,0-1,12.89c3.42,8.87,12.37,5.92,11.94.5C29,39.31,26.13,37.21,28.82,32.81Z"/><path class="cls-2" d="M56,28.15s-3.56-2.41-6.05-1.36-4.66,3.84-2,8.24-.18,6.49-.45,10c-.41,5.41,8.55,8.35,11.94-.53C63,35.07,56,28.15,56,28.15Z"/><path class="cls-2" d="M48.52,40.26l.25-1.43a5.24,5.24,0,0,0-4,1.39c-2.61,2.18-5.73,7.85-5.73,22.46H40.5c0-14,2.8-19.28,5.15-21.29a3.88,3.88,0,0,1,2.87-1.13Z"/><path class="cls-2" d="M32,37.77a5.22,5.22,0,0,0-4-1.4l.25,1.43a3.86,3.86,0,0,1,2.87,1.14c2.35,2,5.15,7.34,5.15,21.28h1.45c0-14.6-3.12-20.27-5.73-22.45Z"/><path class="cls-3" d="M27.32,29.5c2.68-4.4.5-7.18-2-8.23-3.74-1.58-7.08,2.09-8.64,5A15.23,15.23,0,0,0,15.84,39c3.41,8.86,12.36,5.91,11.94.5C27.51,36,24.63,33.9,27.32,29.5Z"/><path class="cls-3" d="M54.43,24.85c-1.54-1.19-4.17-2.17-6-1.37-2.49,1.06-4.66,3.83-2,8.23s-.19,6.49-.45,10c-.41,5.42,8.54,8.35,11.94-.53a14.93,14.93,0,0,0,.16-10.29c-.73-2.1-1.77-4.51-3.56-5.93Z"/><path class="cls-4" d="M47,36.94l.25-1.43a5.22,5.22,0,0,0-4,1.4c-2.61,2.18-5.73,7.85-5.73,22.45H39c0-14,2.8-19.27,5.14-21.29A3.89,3.89,0,0,1,47,36.94Z"/><path class="cls-4" d="M30.54,34.45a5.15,5.15,0,0,0-4-1.39l.25,1.43a3.83,3.83,0,0,1,2.87,1.13c2.35,2,5.14,7.34,5.14,21.29h1.45c0-14.61-3.11-20.28-5.72-22.46Z"/></svg>