<svg id="Layer_1" data-name="Layer 1" xmlns="http://www.w3.org/2000/svg" viewBox="0 0 75 75"><defs><style>.cls-1{fill:#fff;stroke:#000;}.cls-1,.cls-3{stroke-miterlimit:10;stroke-width:2px;}.cls-2{fill:#fea636;}.cls-3{fill:none;stroke:#231f20;stroke-linecap:round;}</style></defs><title>khicon_dialysis</title><circle class="cls-1" cx="37.62" cy="37.7" r="34.14"/><path class="cls-2" d="M48.46,20.41H44.94a6.94,6.94,0,0,0-13.7,0H27.72A5.55,5.55,0,0,0,22.18,26V52.44A5.55,5.55,0,0,0,27.72,58h5.4v1.87h3.27v1.38a6.69,6.69,0,0,0,6.68,6.68V64.51a3.28,3.28,0,0,1-3.28-3.27V59.86h3.28V58h5.39A5.56,5.56,0,0,0,54,52.44V26a5.55,5.55,0,0,0-5.55-5.54Z"/><path class="cls-3" d="M35.82,18.06a2.05,2.05,0,1,0,2,2.05A2,2,0,0,0,35.82,18.06ZM46.18,19H42.67A6.95,6.95,0,0,0,29,19H25.45a5.56,5.56,0,0,0-5.55,5.55V51a5.56,5.56,0,0,0,5.55,5.55h5.39v1.87h3.27V59.8a6.69,6.69,0,0,0,6.68,6.68v-3.4a3.28,3.28,0,0,1-3.27-3.28V58.43h3.27V56.55h5.4A5.55,5.55,0,0,0,51.74,51V24.52A5.56,5.56,0,0,0,46.18,19Zm-25,12.79H50.54M42.05,37h4.49m-4.49,4.32h4.49m-4.49,4.32h4.49M42.05,27.39h4.49"/></svg>